<svg width="904" height="304" viewBox="0 0 904 304" fill="none" xmlns="http://www.w3.org/2000/svg">
    <rect x="812" y="2" width="90" height="300" fill="#FCFCFC" stroke="#1E1E1E" stroke-width="3" />
    <path d="M812 292H902V302H812V292Z" fill="#EFEFEF" />
    <path
        d="M902 302V303.5H903.5V302H902ZM812 302H810.5V303.5H812V302ZM900.5 292V302H903.5V292H900.5ZM902 300.5H812V303.5H902V300.5ZM813.5 302V292H810.5V302H813.5Z"
        fill="#1E1E1E" />
    <rect x="722" y="2" width="90" height="300" fill="#FCFCFC" stroke="#1E1E1E" stroke-width="3" />
    <path d="M722 292H812V302H722V292Z" fill="#EFEFEF" />
    <path
        d="M812 302V303.5H813.5V302H812ZM722 302H720.5V303.5H722V302ZM810.5 292V302H813.5V292H810.5ZM812 300.5H722V303.5H812V300.5ZM723.5 302V292H720.5V302H723.5Z"
        fill="#1E1E1E" />
    <rect x="632" y="2" width="90" height="300" fill="#FCFCFC" stroke="#1E1E1E" stroke-width="3" />
    <path d="M632 292H722V302H632V292Z" fill="#EFEFEF" />
    <path
        d="M722 302V303.5H723.5V302H722ZM632 302H630.5V303.5H632V302ZM720.5 292V302H723.5V292H720.5ZM722 300.5H632V303.5H722V300.5ZM633.5 302V292H630.5V302H633.5Z"
        fill="#1E1E1E" />
    <rect x="787" y="2" width="50" height="175" fill="#333333" stroke="#1E1E1E" stroke-width="3" />
    <path d="M787 167H837V177H787V167Z" fill="#4E4E4E" />
    <path
        d="M837 177V178.5H838.5V177H837ZM787 177H785.5V178.5H787V177ZM835.5 167V177H838.5V167H835.5ZM837 175.5H787V178.5H837V175.5ZM788.5 177V167H785.5V177H788.5Z"
        fill="#1E1E1E" />
    <rect x="697" y="2" width="50" height="175" fill="#333333" stroke="#1E1E1E" stroke-width="3" />
    <path d="M697 167H747V177H697V167Z" fill="#4E4E4E" />
    <path
        d="M747 177V178.5H748.5V177H747ZM697 177H695.5V178.5H697V177ZM745.5 167V177H748.5V167H745.5ZM747 175.5H697V178.5H747V175.5ZM698.5 177V167H695.5V177H698.5Z"
        fill="#1E1E1E" />
    <rect x="182" y="2" width="90" height="300" fill="#FCFCFC" stroke="#1E1E1E" stroke-width="3" />
    <path d="M182 292H272V302H182V292Z" fill="#EFEFEF" />
    <path
        d="M272 302V303.5H273.5V302H272ZM182 302H180.5V303.5H182V302ZM270.5 292V302H273.5V292H270.5ZM272 300.5H182V303.5H272V300.5ZM183.5 302V292H180.5V302H183.5Z"
        fill="#1E1E1E" />
    <rect x="92" y="2" width="90" height="300" fill="#FCFCFC" stroke="#1E1E1E" stroke-width="3" />
    <path d="M92 292H182V302H92V292Z" fill="#EFEFEF" />
    <path
        d="M182 302V303.5H183.5V302H182ZM92 302H90.5V303.5H92V302ZM180.5 292V302H183.5V292H180.5ZM182 300.5H92V303.5H182V300.5ZM93.5 302V292H90.5V302H93.5Z"
        fill="#1E1E1E" />
    <rect x="2" y="2" width="90" height="300" fill="#FCFCFC" stroke="#1E1E1E" stroke-width="3" />
    <path d="M2 292H92V302H2V292Z" fill="#EFEFEF" />
    <path
        d="M92 302V303.5H93.5V302H92ZM2 302H0.5V303.5H2V302ZM90.5 292V302H93.5V292H90.5ZM92 300.5H2V303.5H92V300.5ZM3.5 302V292H0.5V302H3.5Z"
        fill="#1E1E1E" />
    <rect x="157" y="2" width="50" height="175" fill="#333333" stroke="#1E1E1E" stroke-width="3" />
    <path d="M157 167H207V177H157V167Z" fill="#4E4E4E" />
    <path
        d="M207 177V178.5H208.5V177H207ZM157 177H155.5V178.5H157V177ZM205.5 167V177H208.5V167H205.5ZM207 175.5H157V178.5H207V175.5ZM158.5 177V167H155.5V177H158.5Z"
        fill="#1E1E1E" />
    <rect x="67" y="2" width="50" height="175" fill="#333333" stroke="#1E1E1E" stroke-width="3" />
    <path d="M67 167H117V177H67V167Z" fill="#4E4E4E" />
    <path
        d="M117 177V178.5H118.5V177H117ZM67 177H65.5V178.5H67V177ZM115.5 167V177H118.5V167H115.5ZM117 175.5H67V178.5H117V175.5ZM68.5 177V167H65.5V177H68.5Z"
        fill="#1E1E1E" />
    <path d="M542 2H632V302H542V2Z" fill="#FCFCFC" />
    <path
        d="M542 2V0.5H540.5V2H542ZM632 2H633.5V0.5H632V2ZM632 302V303.5H633.5V302H632ZM542 302H540.5V303.5H542V302ZM542 3.5H632V0.5H542V3.5ZM630.5 2V302H633.5V2H630.5ZM632 300.5H542V303.5H632V300.5ZM543.5 302V2H540.5V302H543.5Z"
        fill="#1E1E1E" />
    <path d="M542 292H632V302H542V292Z" fill="#EFEFEF" />
    <path
        d="M632 302V303.5H633.5V302H632ZM542 302H540.5V303.5H542V302ZM630.5 292V302H633.5V292H630.5ZM632 300.5H542V303.5H632V300.5ZM543.5 302V292H540.5V302H543.5Z"
        fill="#1E1E1E" />
    <path d="M452 2H542V302H452V2Z" fill="#FCFCFC" />
    <path
        d="M452 2V0.5H450.5V2H452ZM542 2H543.5V0.5H542V2ZM542 302V303.5H543.5V302H542ZM452 302H450.5V303.5H452V302ZM452 3.5H542V0.5H452V3.5ZM540.5 2V302H543.5V2H540.5ZM542 300.5H452V303.5H542V300.5ZM453.5 302V2H450.5V302H453.5Z"
        fill="#1E1E1E" />
    <path d="M452 292H542V302H452V292Z" fill="#EFEFEF" />
    <path
        d="M542 302V303.5H543.5V302H542ZM452 302H450.5V303.5H452V302ZM540.5 292V302H543.5V292H540.5ZM542 300.5H452V303.5H542V300.5ZM453.5 302V292H450.5V302H453.5Z"
        fill="#1E1E1E" />
    <path d="M362 2H452V302H362V2Z" fill="#FCFCFC" />
    <path
        d="M362 2V0.5H360.5V2H362ZM452 2H453.5V0.5H452V2ZM452 302V303.5H453.5V302H452ZM362 302H360.5V303.5H362V302ZM362 3.5H452V0.5H362V3.5ZM450.5 2V302H453.5V2H450.5ZM452 300.5H362V303.5H452V300.5ZM363.5 302V2H360.5V302H363.5Z"
        fill="#1E1E1E" />
    <path d="M362 292H452V302H362V292Z" fill="#EFEFEF" />
    <path
        d="M452 302V303.5H453.5V302H452ZM362 302H360.5V303.5H362V302ZM450.5 292V302H453.5V292H450.5ZM452 300.5H362V303.5H452V300.5ZM363.5 302V292H360.5V302H363.5Z"
        fill="#1E1E1E" />
    <path d="M272 2H362V302H272V2Z" fill="#FCFCFC" />
    <path
        d="M272 2V0.5H270.5V2H272ZM362 2H363.5V0.5H362V2ZM362 302V303.5H363.5V302H362ZM272 302H270.5V303.5H272V302ZM272 3.5H362V0.5H272V3.5ZM360.5 2V302H363.5V2H360.5ZM362 300.5H272V303.5H362V300.5ZM273.5 302V2H270.5V302H273.5Z"
        fill="#1E1E1E" />
    <path d="M272 292H362V302H272V292Z" fill="#EFEFEF" />
    <path
        d="M362 302V303.5H363.5V302H362ZM272 302H270.5V303.5H272V302ZM360.5 292V302H363.5V292H360.5ZM362 300.5H272V303.5H362V300.5ZM273.5 302V292H270.5V302H273.5Z"
        fill="#1E1E1E" />
    <rect x="337" y="2" width="50" height="175" fill="#333333" stroke="#1E1E1E" stroke-width="3" />
    <path d="M337 167H387V177H337V167Z" fill="#4E4E4E" />
    <path
        d="M387 177V178.5H388.5V177H387ZM337 177H335.5V178.5H337V177ZM385.5 167V177H388.5V167H385.5ZM387 175.5H337V178.5H387V175.5ZM338.5 177V167H335.5V177H338.5Z"
        fill="#1E1E1E" />
    <rect x="427" y="2" width="50" height="175" fill="#333333" stroke="#1E1E1E" stroke-width="3" />
    <path d="M427 167H477V177H427V167Z" fill="#4E4E4E" />
    <path
        d="M477 177V178.5H478.5V177H477ZM427 177H425.5V178.5H427V177ZM475.5 167V177H478.5V167H475.5ZM477 175.5H427V178.5H477V175.5ZM428.5 177V167H425.5V177H428.5Z"
        fill="#1E1E1E" />
    <rect x="517" y="2" width="50" height="175" fill="#333333" stroke="#1E1E1E" stroke-width="3" />
    <path d="M517 167H567V177H517V167Z" fill="#4E4E4E" />
    <path
        d="M567 177V178.5H568.5V177H567ZM517 177H515.5V178.5H517V177ZM565.5 167V177H568.5V167H565.5ZM567 175.5H517V178.5H567V175.5ZM518.5 177V167H515.5V177H518.5Z"
        fill="#1E1E1E" />
</svg>